HIERARCHY
ROOT reference
{
  OFFSET 0 0 0
  CHANNELS 6 Xposition Yposition Zposition Zrotation Xrotation Yrotation
  JOINT Hips
  {
    OFFSET -12.1152 71.2066 -15.6319
    CHANNELS 6 Xposition Yposition Zposition Zrotation Xrotation Yrotation
    JOINT Spine
    {
      OFFSET 0 7.52385 0
      CHANNELS 6 Xposition Yposition Zposition Zrotation Xrotation Yrotation
      JOINT Spine1
      {
        OFFSET 0 21.7843 0
        CHANNELS 6 Xposition Yposition Zposition Zrotation Xrotation Yrotation
        JOINT Neck
        {
          OFFSET 0 21.6948 1.97225
          CHANNELS 6 Xposition Yposition Zposition Zrotation Xrotation Yrotation
          JOINT Head
          {
            OFFSET 0 12.8456 -1.83509
            CHANNELS 6 Xposition Yposition Zposition Zrotation Xrotation Yrotation
            End Site
            {
              OFFSET 0 22.9386 0
            }
          }
        }
        JOINT LeftShoulder
        {
          OFFSET 3.65748 19.7052 -0.211895
          CHANNELS 6 Xposition Yposition Zposition Zrotation Xrotation Yrotation
          JOINT LeftArm
          {
            OFFSET 11.1953 0 0
            CHANNELS 6 Xposition Yposition Zposition Zrotation Xrotation Yrotation
            JOINT LeftForeArm
            {
              OFFSET 29.6607 0 0
              CHANNELS 6 Xposition Yposition Zposition Zrotation Xrotation Yrotation
              JOINT LeftHand
              {
                OFFSET 23.3476 0 0
                CHANNELS 6 Xposition Yposition Zposition Zrotation Xrotation Yrotation
                End Site
                {
                  OFFSET 13.7631 0 0
                }
              }
            }
          }
        }
        JOINT RightShoulder
        {
          OFFSET -3.68053 19.7052 -0.211895
          CHANNELS 6 Xposition Yposition Zposition Zrotation Xrotation Yrotation
          JOINT RightArm
          {
            OFFSET -11.1953 0 0
            CHANNELS 6 Xposition Yposition Zposition Zrotation Xrotation Yrotation
            JOINT RightForeArm
            {
              OFFSET -29.6607 0 0
              CHANNELS 6 Xposition Yposition Zposition Zrotation Xrotation Yrotation
              JOINT RightHand
              {
                OFFSET -23.3476 0 0
                CHANNELS 6 Xposition Yposition Zposition Zrotation Xrotation Yrotation
                End Site
                {
                  OFFSET -13.7631 0 0
                }
              }
            }
          }
        }
      }
    }
    JOINT LeftUpLeg
    {
      OFFSET 9.17543 0 0
      CHANNELS 6 Xposition Yposition Zposition Zrotation Xrotation Yrotation
      JOINT LeftLeg
      {
        OFFSET 0 -39.1216 0
        CHANNELS 6 Xposition Yposition Zposition Zrotation Xrotation Yrotation
        JOINT LeftFoot
        {
          OFFSET 0 -35.3569 0
          CHANNELS 6 Xposition Yposition Zposition Zrotation Xrotation Yrotation
          JOINT LeftToeBase
          {
            OFFSET 0 -5.96403 13.7631
            CHANNELS 6 Xposition Yposition Zposition Zrotation Xrotation Yrotation
            End Site
            {
              OFFSET 0 0 3.67017
            }
          }
        }
      }
    }
    JOINT RightUpLeg
    {
      OFFSET -9.17543 0 0
      CHANNELS 6 Xposition Yposition Zposition Zrotation Xrotation Yrotation
      JOINT RightLeg
      {
        OFFSET 0 -39.1216 0
        CHANNELS 6 Xposition Yposition Zposition Zrotation Xrotation Yrotation
        JOINT RightFoot
        {
          OFFSET 0 -35.3569 0
          CHANNELS 6 Xposition Yposition Zposition Zrotation Xrotation Yrotation
          JOINT RightToeBase
          {
            OFFSET 0 -5.96403 13.7631
            CHANNELS 6 Xposition Yposition Zposition Zrotation Xrotation Yrotation
            End Site
            {
              OFFSET 0 0 3.67017
            }
          }
        }
      }
    }
  }
}
MOTION
Frames:	11
Frame Time:	0.004
0 0 0 0 0 -0 -16.7169 75.3652 -214.736 0.113318 -5.32333 2.23343 -3.55271e-015 7.52385 0 0.384397 0.231909 -0.530168 0 21.7843 0 1.14293 0.037398 -0.525675 1.77636e-015 21.6948 1.97225 -1.03358 9.51776 -1.80435 -3.55271e-015 12.8456 -1.83509 0.626741 5.25875 -1.75773 3.65748 19.7052 -0.211895 19.0496 -2.11719 -2.08363 11.1953 0 -2.84217e-014 -22.4596 7.01825 1.55049 29.6607 -4.26326e-014 -2.84217e-014 1.71516 -2.44734 -0.77822 23.3476 -2.84217e-014 2.84217e-014 -6.63053 -2.14559 -5.06259 -3.68053 19.7052 -0.211895 -14.33 2.80869 -3.734 -11.1953 1.42109e-014 0 25.9437 7.82457 6.49071 -29.6607 0 0 -1.73041 -1.06223 1.2642 -23.3476 1.42109e-014 0 3.39769 -1.03813 0.171895 9.17543 0 0 4.36805 9.03461 0.266902 0 -39.1216 -2.84217e-014 -0.567235 -0.486003 -0.461004 -8.88178e-016 -35.3569 0 -1.26464 -6.37152 9.67388 -7.10543e-015 -5.96403 13.7631 3.31043e-032 1.19271e-015 -1.59028e-015 -9.17543 0 0 -5.45745 7.70467 1.53663 3.55271e-015 -39.1216 0 1.4874 3.48082 -1.9197 0 -35.3569 0 2.43096 -8.62732 -20.777 0 -5.96403 13.7631 -1.98785e-016 3.97569e-016 -0 
0 0 0 0 0 -0 -16.7169 75.3652 -214.736 0.113318 -5.32333 2.23343 -3.55271e-015 7.52385 0 0.384397 0.231909 -0.530168 0 21.7843 0 1.14293 0.037398 -0.525675 1.77636e-015 21.6948 1.97225 -1.0037 9.50694 -1.8043 3.55271e-015 12.8456 -1.83509 0.565529 5.2656 -1.75775 3.65748 19.7052 -0.211895 19.0335 -2.12101 -2.08364 11.1953 0 -2.84217e-014 -22.4487 7.01604 1.55048 29.6607 -2.84217e-014 2.84217e-014 1.71516 -2.44734 -0.77822 23.3476 0 0 -6.63037 -2.1425 -5.06557 -3.68053 19.7052 -0.211895 -14.3417 1.93508 -3.34864 -11.1953 -2.84217e-014 0 26.0098 8.57781 5.58134 -29.6607 -2.84217e-014 0 -1.75573 -1.13278 1.4783 -23.3476 1.42109e-014 0 3.37593 -1.10709 0.10489 9.17543 0 0 4.36811 9.02277 0.266893 0 -39.1216 0 -0.56729 -0.486003 -0.467399 -1.77636e-015 -35.3569 -2.84217e-014 -1.26896 -6.37131 9.68502 -7.10543e-015 -5.96403 13.7631 -0 0 1.59028e-015 -9.17543 0 0 -5.45653 7.68553 1.53352 -7.10543e-015 -39.1216 0 1.4869 3.4921 -1.90528 0 -35.3569 0 2.43063 -8.6272 -20.7792 0 -5.96403 13.7631 -3.97569e-016 3.97569e-016 3.18055e-015 
0 0 0 0 0 -0 -16.7169 75.3652 -214.737 0.113318 -5.32333 2.23343 -1.77636e-015 7.52385 0 0.384397 0.231909 -0.530168 1.77636e-015 21.7843 0 1.14014 0.037398 -0.525675 0 21.6948 1.97225 -1.00259 9.52875 -1.80441 -3.55271e-015 12.8456 -1.83509 0.571903 5.24562 -1.75769 3.65748 19.7052 -0.211895 19.0387 -2.10567 -2.08362 11.1953 2.84217e-014 2.84217e-014 -22.4559 7.00231 1.55044 29.6607 0 2.84217e-014 1.715 -2.45907 -0.778227 23.3476 0 0 -6.63092 -2.15509 -5.04824 -3.68053 19.7052 -0.211895 -14.3117 2.80572 -3.72747 -11.1953 0 2.84217e-014 25.9345 7.81423 6.47394 -29.6607 1.42109e-014 0 -1.72561 -1.06012 1.27082 -23.3476 1.42109e-014 -2.84217e-014 3.39988 -1.03617 0.163114 9.17543 -1.42109e-014 -2.84217e-014 4.36809 9.02572 0.266895 0 -39.1216 0 -0.567135 -0.486004 -0.449123 0 -35.3569 0 -1.27481 -6.3714 9.68025 0 -5.96403 13.7631 9.93923e-017 0 1.59028e-015 -9.17543 0 0 -5.45509 7.692 1.52154 -7.10543e-015 -39.1216 0 1.48755 3.49448 -1.9147 0 -35.3569 0 2.42305 -8.62833 -20.7591 0 -5.96403 13.7631 1.98785e-016 0 -9.54166e-015 
0 0 0 0 0 -0 -16.7169 75.3652 -214.739 0.113318 -5.32333 2.23343 -1.77636e-015 7.52385 -2.84217e-014 0.384397 0.231909 -0.530168 1.77636e-015 21.7843 0 1.15556 0.037398 -0.525675 -3.55271e-015 21.6948 1.97225 -1.02367 9.50552 -1.80429 0 12.8456 -1.83509 0.586199 5.27647 -1.75778 3.65748 19.7052 -0.211895 19.0175 -2.11953 -2.08364 11.1953 0 0 -22.4566 7.0213 1.5505 29.6607 -2.84217e-014 0 1.71492 -2.46551 -0.778231 23.3476 -2.84217e-014 0 -6.6146 -2.16211 -5.05116 -3.68053 19.7052 -0.211895 -14.3329 1.92555 -3.33751 -11.1953 0 0 26.0061 8.58842 5.55061 -29.6607 1.42109e-014 0 -1.75449 -1.13378 1.48753 -23.3476 0 0 3.4079 -1.10786 0.107325 9.17543 0 -2.84217e-014 4.3681 9.02459 0.266894 1.77636e-015 -39.1216 0 -0.567032 -0.486005 -0.436956 -8.88178e-016 -35.3569 0 -1.285 -6.37186 9.6558 0 -5.96403 13.7631 6.95746e-016 -3.97569e-016 -1.59028e-015 -9.17543 0 -2.84217e-014 -5.45791 7.69309 1.54233 -3.55271e-015 -39.1216 0 1.48772 3.49344 -1.91799 -7.10543e-015 -35.3569 0 2.46059 -8.62698 -20.7831 -1.42109e-014 -5.96403 13.7631 -1.98785e-016 3.97569e-016 1.27222e-014 
0 0 0 0 0 -0 -16.7169 75.3652 -214.741 0.1133 -5.32288 2.23342 -3.55271e-015 7.52385 0 0.384397 0.231909 -0.530168 -1.77636e-015 21.7843 0 1.17117 0.042558 -0.526596 5.32907e-015 21.6948 1.97225 -1.03066 9.48932 -1.8042 0 12.8456 -1.83509 0.583354 5.30429 -1.75786 3.65748 19.7052 -0.211895 19.0103 -2.11764 -2.08363 11.1953 2.84217e-014 0 -22.4563 7.01141 1.55047 29.6607 -2.84217e-014 -2.84217e-014 1.71499 -2.4602 -0.778228 23.3476 0 2.84217e-014 -6.60003 -2.15606 -5.05001 -3.68053 19.7052 -0.211895 -14.3339 1.91656 -3.33585 -11.1953 0 0 26.0005 8.56453 5.53853 -29.6607 0 0 -1.73277 -1.1235 1.47563 -23.3476 0 -2.84217e-014 3.37887 -1.09796 0.111891 9.17543 -1.42109e-014 -2.84217e-014 4.36603 9.02384 0.280105 -1.77636e-015 -39.1216 0 -0.567162 -0.486004 -0.45237 -8.88178e-016 -35.3569 0 -1.26129 -6.37593 9.66524 0 -5.96403 13.7631 -2.98177e-016 3.97569e-016 -0 -9.17543 0 0 -5.45798 7.69392 1.54272 -7.10543e-015 -39.1216 -2.84217e-014 1.48788 3.49205 -1.92135 3.55271e-015 -35.3569 2.84217e-014 2.37092 -8.61953 -20.7796 0 -5.96403 13.7631 -0 0 6.36111e-015 
0 0 0 0 0 -0 -16.7169 75.3652 -214.744 0.113276 -5.32227 2.23342 -3.55271e-015 7.52385 0 0.389002 0.233281 -0.530168 0 21.7843 0 1.16964 0.056644 -0.527603 -1.77636e-015 21.6948 1.97225 -1.01664 9.48614 -1.80419 0 12.8456 -1.83509 0.575965 5.29927 -1.75785 3.65748 19.7052 -0.211895 19.0169 -2.11705 -2.08363 11.1953 -2.84217e-014 0 -22.4557 6.99995 1.55043 29.6607 -1.42109e-014 0 1.71505 -2.45583 -0.778225 23.3476 -2.84217e-014 0 -6.63473 -2.15077 -5.0664 -3.68053 19.7052 -0.211895 -14.3244 1.9165 -3.33312 -11.1953 -2.84217e-014 0 25.9992 8.55283 5.5444 -29.6607 0 0 -1.73913 -1.12543 1.46709 -23.3476 0 0 3.41788 -1.1019 0.125589 9.17543 0 0 4.3674 9.02922 0.271199 0 -39.1216 0 -0.567226 -0.498497 -0.44841 0 -35.3569 0 -1.26182 -6.35828 9.64862 0 -5.96403 13.7631 1.98785e-016 -7.95139e-016 1.59028e-015 -9.17543 1.42109e-014 2.84217e-014 -5.45762 7.69448 1.53993 -3.55271e-015 -39.1216 0 1.48831 3.49045 -1.94253 0 -35.3569 0 2.39062 -8.60314 -20.7535 0 -5.96403 13.7631 1.98785e-016 0 -0 
0 0 0 0 0 -0 -16.7169 75.3652 -214.746 0.113249 -5.32159 2.23342 -5.32907e-015 7.52385 0 0.386828 0.242973 -0.530168 0 21.7843 2.84217e-014 1.17437 0.05174 -0.528659 3.55271e-015 21.6948 1.97225 -1.02378 9.48621 -1.80419 -3.55271e-015 12.8456 -1.83509 0.576551 5.28635 -1.75781 3.65748 19.7052 -0.211895 19.0071 -2.12756 -2.08365 11.1953 -2.84217e-014 0 -22.4557 7.02374 1.54863 29.6607 1.42109e-014 -2.84217e-014 1.71488 -2.46789 -0.778232 23.3476 0 0 -6.64066 -2.16277 -5.0605 -3.68053 19.7052 -0.211895 -14.3165 1.91819 -3.33304 -11.1953 0 0 25.9936 8.55039 5.53571 -29.6607 2.84217e-014 0 -1.73406 -1.12905 1.46071 -23.3476 0 0 3.39922 -1.1031 0.132402 9.17543 -1.42109e-014 0 4.36743 9.03767 0.270796 0 -39.1216 -2.84217e-014 -0.567502 -0.499753 -0.478909 -8.88178e-016 -35.3569 0 -1.27347 -6.37187 9.67923 0 -5.96403 13.7631 0 0 -0 -9.17543 -1.42109e-014 2.84217e-014 -5.45819 7.69478 1.54408 0 -39.1216 2.84217e-014 1.48682 3.4889 -1.93462 3.55271e-015 -35.3569 0 2.43023 -8.62891 -20.7672 1.42109e-014 -5.96403 13.7631 -3.97569e-016 3.97569e-016 6.36111e-015 
0 0 0 0 0 -0 -16.7169 75.3652 -214.749 0.113224 -5.32095 2.23342 0 7.52385 2.84217e-014 0.383606 0.24155 -0.530877 0 21.7843 0 1.1894 0.044341 -0.529728 0 21.6948 1.97225 -1.05 9.48655 -1.80339 -3.55271e-015 12.8456 -1.83509 0.608496 5.31886 -1.75507 3.65748 19.7052 -0.211895 19.0006 -2.11664 -2.08363 11.1953 0 2.84217e-014 -22.4564 7.01124 1.56257 29.6607 0 0 1.71494 -2.46374 -0.77823 23.3476 -2.84217e-014 0 -6.61224 -2.16001 -5.0594 -3.68053 19.7052 -0.211895 -14.3138 1.9305 -3.3473 -11.1953 0 -2.84217e-014 25.9758 8.54325 5.55407 -29.6607 1.42109e-014 -2.84217e-014 -1.72488 -1.13095 1.46247 -23.3476 1.42109e-014 2.84217e-014 3.42329 -1.10493 0.117894 9.17543 1.42109e-014 0 4.3674 9.01789 0.271529 -3.55271e-015 -39.1216 0 -0.567292 -0.498825 -0.455647 -8.88178e-016 -35.3569 0 -1.26155 -6.36887 9.65127 -7.10543e-015 -5.96403 13.7631 -9.93923e-017 0 -1.59028e-015 -9.17543 1.42109e-014 2.84217e-014 -5.4602 7.69486 1.55911 7.10543e-015 -39.1216 0 1.48544 3.48754 -1.92977 -3.55271e-015 -35.3569 2.84217e-014 2.41049 -8.62353 -20.7911 0 -5.96403 13.7631 -5.96354e-016 3.97569e-016 3.18055e-015 
0 0 0 0 0 -0 -16.715 75.3652 -214.752 0.113204 -5.32043 2.23341 -1.77636e-015 7.52385 0 0.380173 0.245928 -0.531665 0 21.7843 -2.84217e-014 1.18294 0.0422339 -0.530772 0 21.6948 1.97225 -1.03282 9.48713 -1.80251 -7.10543e-015 12.8456 -1.83509 0.588971 5.30846 -1.75341 3.65748 19.7052 -0.211895 19.0029 -2.12243 -2.08364 11.1953 0 0 -22.4546 6.99543 1.5566 29.6607 2.84217e-014 0 1.71531 -2.44777 -0.774628 23.3476 -2.84217e-014 -2.84217e-014 -6.6336 -2.14269 -5.05882 -3.68053 19.7052 -0.211895 -14.3063 1.93265 -3.33874 -11.1953 2.84217e-014 2.84217e-014 25.975 8.51452 5.54365 -29.6607 2.84217e-014 2.84217e-014 -1.71885 -1.13285 1.46434 -23.3476 2.84217e-014 0 3.42841 -1.10703 0.107328 9.17543 0 0 4.36714 9.02879 0.27287 -1.77636e-015 -39.1216 0 -0.565957 -0.497528 -0.4607 -8.88178e-016 -35.3569 0 -1.26202 -6.37065 9.65985 -7.10543e-015 -5.96403 13.7631 1.98785e-016 0 -0 -9.17543 0 2.84217e-014 -5.45985 7.69489 1.54755 3.55271e-015 -39.1216 0 1.48463 3.48652 -1.93441 0 -35.3569 0 2.37832 -8.6095 -20.7789 0 -5.96403 13.7631 1.98785e-016 -7.95139e-016 3.18055e-015 
0 0 0 0 0 -0 -16.7137 75.3652 -214.754 0.113193 -5.32015 2.23341 -3.55271e-015 7.52385 0 0.377154 0.249499 -0.532473 1.77636e-015 21.7843 2.84217e-014 1.1958 0.0406207 -0.531754 0 21.6948 1.97225 -1.04028 9.4879 -1.80161 -3.55271e-015 12.8456 -1.83509 0.594585 5.30726 -1.75169 3.65748 19.7052 -0.211895 18.9929 -2.12253 -2.08364 11.1953 0 0 -22.4551 7.02159 1.56175 29.6607 -1.42109e-014 2.84217e-014 1.71512 -2.45427 -0.777063 23.3476 0 5.68434e-014 -6.63414 -2.14923 -5.05857 -3.68053 19.7052 -0.211895 -14.3031 1.9358 -3.33978 -11.1953 0 0 25.9687 8.52821 5.53814 -29.6607 2.84217e-014 0 -1.71299 -1.13452 1.45864 -23.3476 -2.84217e-014 -2.84217e-014 3.40226 -1.10904 0.108602 9.17543 -1.42109e-014 0 4.36695 9.02575 0.274212 0 -39.1216 0 -0.579896 -0.496924 -0.433249 -1.77636e-015 -35.3569 0 -1.2675 -6.35791 9.6411 7.10543e-015 -5.96403 13.7631 3.97569e-016 -7.95139e-016 3.18055e-015 -9.17543 0 0 -5.46234 7.6915 1.5579 -7.10543e-015 -39.1216 0 1.48341 3.48906 -1.92963 0 -35.3569 2.84217e-014 2.41489 -8.60811 -20.787 -1.42109e-014 -5.96403 13.7631 -1.98785e-016 0 3.18055e-015 
0 0 0 0 0 -0 -16.7124 75.3652 -214.757 0.113194 -5.32019 2.23341 0 7.52385 2.84217e-014 0.375146 0.243229 -0.533241 0 21.7843 0 1.20329 0.0393603 -0.532638 0 21.6948 1.97225 -1.06536 9.48885 -1.80075 0 12.8456 -1.83509 0.62859 5.30547 -1.75004 3.65748 19.7052 -0.211895 18.9905 -2.1215 -2.08364 11.1953 2.84217e-014 -2.84217e-014 -22.4545 7.00501 1.56741 29.6607 1.42109e-014 0 1.71494 -2.45657 -0.78056 23.3476 0 0 -6.65166 -2.15074 -5.05823 -3.68053 19.7052 -0.211895 -14.3043 1.93907 -3.35203 -11.1953 2.84217e-014 0 25.9653 8.53078 5.53964 -29.6607 1.42109e-014 2.84217e-014 -1.71795 -1.13572 1.4494 -23.3476 2.84217e-014 2.84217e-014 3.45308 -1.1106 0.12577 9.17543 0 2.84217e-014 4.36654 9.02016 0.276994 0 -39.1216 -2.84217e-014 -0.567803 -0.500128 -0.445151 0 -35.3569 0 -1.2664 -6.36255 9.65254 0 -5.96403 13.7631 2.98177e-016 0 -0 -9.17543 0 2.84217e-014 -5.46421 7.68481 1.56432 0 -39.1216 0 1.48237 3.49608 -1.92356 1.06581e-014 -35.3569 -2.84217e-014 2.40113 -8.617 -20.7903 0 -5.96403 13.7631 -3.97569e-016 -3.97569e-016 -0 
